:SAMPLES-PER-SECOND 30
:FULLY-SPECIFIED
:DEGREES
960
root  2.44832 40.0232 -5.36763 -88.9831 -85.6548 81.3655
RightUpLeg  8.39568 -12.5393 -9.33581
RightLeg  17.9939 0.0776906 0.204404
RightFoot  -16.7983 -0.00425192 2.30237
RightToes  0.000482159 0.542163 -0.142577
Spine  7.92911 1.03796 2.24814
Spine1  3.10041 2.71509 -5.72652
HEad  14.4673 3.73856 -1.53455
LeftShoulder1  0.419373 0.154812 -4.52388
LeftArm  -25.008 17.1868 -7.47748
LeftForeArm  20.1349 -13.7229 -0.461478
LeftHand  -0.25398 0.0180481 5.50724
RightShoulder  0.479809 -0.201509 6.94297
RightArm  -19.9075 -11.5107 4.91967
RightForeArm  -14.6517 11.2189 4.68255
RightHand  -5.226 13.4919 -31.7776
LeftUpLeg  2.20056 10.4829 -0.0699695
LeftLeg  17.0023 9.45789 3.43461
LeftFoot  -12.2489 0.0429062 -3.81501
LeftToes  1.06246e-005 4.65854e-005 -8.18503e-006
961
root  2.76279 40.1218 -5.57243 -92.35 -86.4417 85.6607
RightUpLeg  7.51816 -13.5738 -8.63212
RightLeg  16.9806 1.19865 1.35276
RightFoot  -15.6112 -0.0244144 2.19499
RightToes  0.000482159 0.542163 -0.142577
Spine  7.10019 0.924826 3.64656
Spine1  2.49274 2.65121 -5.709
HEad  14.332 3.65499 -1.78072
LeftShoulder1  0.19122 1.71551 -2.34687
LeftArm  -28.2697 16.4521 -7.07021
LeftForeArm  21.5105 -15.3538 -0.437043
LeftHand  -0.25398 0.0180481 5.50724
RightShoulder  0.382235 -0.454738 4.68513
RightArm  -21.2933 -9.80643 2.98119
RightForeArm  -15.1858 11.6204 4.55751
RightHand  -5.41572 14.0893 -31.9117
LeftUpLeg  0.315569 10.296 0.575365
LeftLeg  17.2928 8.2609 3.18568
LeftFoot  -11.6415 0.0614503 -3.26769
LeftToes  1.06246e-005 4.65854e-005 -8.18503e-006
962
root  3.06966 40.2097 -5.80155 -94.7145 -86.7957 88.5704
RightUpLeg  7.28958 -13.5214 -8.25869
RightLeg  15.4258 1.69431 2.51856
RightFoot  -14.8151 -0.0307019 2.28793
RightToes  0.000482159 0.542163 -0.142577
Spine  6.79682 0.890348 3.40881
Spine1  2.18836 2.34809 -4.55432
HEad  13.2645 3.68598 -1.72352
LeftShoulder1  0.0391616 3.07969 -0.13599
LeftArm  -29.3821 15.9559 -6.97293
LeftForeArm  20.6072 -15.2876 -0.26979
LeftHand  -0.25398 0.0180481 5.50724
RightShoulder  0.308176 -0.685238 2.8535
RightArm  -22.4723 -8.22329 1.2768
RightForeArm  -14.9012 11.9443 4.42834
RightHand  -5.59115 14.6648 -31.9924
LeftUpLeg  -0.783254 10.3255 1.01767
LeftLeg  16.9044 7.0475 2.69722
LeftFoot  -11.3657 0.0673371 -3.42767
LeftToes  1.06246e-005 4.65854e-005 -8.18503e-006
963
root  3.35386 40.2891 -6.03262 -101.771 -86.7612 95.7908
RightUpLeg  7.45611 -12.6717 -8.05585
RightLeg  13.686 1.22438 3.40125
RightFoot  -14.3704 -0.0421015 2.09127
RightToes  0.000482159 0.542163 -0.142577
Spine  7.07701 1.00949 2.67145
Spine1  1.89596 2.23068 -3.49297
HEad  11.6825 3.665 -1.22031
LeftShoulder1  -0.0234522 3.89795 2.36473
LeftArm  -27.2936 15.5155 -7.03764
LeftForeArm  16.3741 -12.9068 0.14658
LeftHand  -0.25398 0.0180481 5.50724
RightShoulder  0.231327 -1.12229 1.47197
RightArm  -23.5259 -6.94653 0.103136
RightForeArm  -14.5654 12.108 4.29134
RightHand  -5.83395 15.2334 -32.4285
LeftUpLeg  -1.09164 11.3175 1.35845
LeftLeg  16.1017 6.79512 2.41908
LeftFoot  -11.246 0.0711431 -4.36236
LeftToes  1.06246e-005 4.65854e-005 -8.18503e-006
964
root  3.62289 40.3552 -6.2136 -114.599 -86.528 108.83
RightUpLeg  7.23796 -11.9377 -7.82095
RightLeg  12.6231 1.03073 3.93028
RightFoot  -14.0238 -0.0368531 2.49188
RightToes  0.000482159 0.542163 -0.142577
Spine  7.56789 1.22384 2.58612
Spine1  1.36601 2.40295 -3.30056
HEad  10.2168 3.68722 -0.635132
LeftShoulder1  -0.0325757 4.27588 4.60431
LeftArm  -24.5429 15.1036 -7.24921
LeftForeArm  12.0157 -9.19056 0.331652
LeftHand  -0.25398 0.0180481 5.50724
RightShoulder  0.169216 -1.60105 0.550331
RightArm  -24.6295 -6.03184 -0.563481
RightForeArm  -14.7042 12.0141 4.11837
RightHand  -6.12259 15.7875 -33.0939
LeftUpLeg  -1.35095 13.2677 1.66783
LeftLeg  15.4676 7.10112 2.29709
LeftFoot  -10.6498 0.0964073 -5.30796
LeftToes  1.06246e-005 4.65854e-005 -8.18503e-006
965
root  3.89113 40.3956 -6.32626 -127.58 -86.1979 122.206
RightUpLeg  6.58235 -11.5715 -7.54144
RightLeg  12.0972 1.6587 4.29563
RightFoot  -13.7246 -0.020968 3.46275
RightToes  0.000482159 0.542163 -0.142577
Spine  8.05428 1.37897 3.07344
Spine1  0.744759 2.59764 -3.55999
HEad  9.06081 3.97581 -0.416784
LeftShoulder1  -0.0317144 4.50626 5.91101
LeftArm  -23.2147 15.0706 -7.68028
LeftForeArm  9.95593 -5.93915 0.404427
LeftHand  -0.25398 0.0180481 5.50724
RightShoulder  0.138298 -1.86995 0.0599352
RightArm  -25.607 -5.28631 -0.971228
RightForeArm  -15.6202 11.5143 3.941
RightHand  -6.34259 16.2009 -33.589
LeftUpLeg  -1.95186 15.2039 1.82883
LeftLeg  15.2485 6.77121 2.06354
LeftFoot  -9.15118 0.160887 -5.58209
LeftToes  1.06246e-005 4.65854e-005 -8.18503e-006
